<?xml version="1.0" encoding="UTF-8"?>
<svg width="551.73" height="544.59" enable-background="new 0 0 551.732 544.59" viewBox="0 0 551.732 544.59" xmlns="http://www.w3.org/2000/svg">
 <g fill-rule="evenodd">
  <path d="m342.72,26.59c6.661,3.808 9.775,25.764 1,30-1.458-9.208-3.491-17.842-6-26 .18-2.813 1.74-4.26 5-4z"/>
  <path d="m374.72,46.59c2.94-9.06 7.293-16.708 16-20-.017,7.441-9.783,13.458-13,21l-1.167-1.5-1.83.5z"/>
  <path d="m371.88,62.09 1.833-.5c-2.499,6.167-5.148,12.185-10,16-5.524.073-2.129-7.838-2-11-3.913-1.58-2.07,2.596-4,3l-1.167-1.5-1.833.5c-1.417-3.207 1.461-4.892 2-8 1.598-9.203-2.992-21.803 5-26 4.141,9.666 4.357,20.365 5,29 3.213.88 1.37-3.296 4-3l1.17,1.5z"/>
  <path d="m355.88,70.09 1.833-.5c.027,3.36-1.377,5.29-3,7-5.176.378-2.419-7.233 0-8l1.17,1.5z"/>
  <path d="m328.72,70.59c-10.579-10.754-23.732-18.934-30-34 .677-2.323 3.323-2.677 4-5 9.229,7.438 17.251,16.082 23,27 2.672,2.994 5.819,5.514 6,11l-1.833-.5-1.17,1.5z"/>
  <path d="m277.72,34.59c4.434-.767 3.159,4.174 6,5-6.326,3.531-2.255,14.965-4,21-9.21-3.608-3.64-20.943-2-26z"/>
  <path d="m446.72,62.59c-9.446,10.22-19.832,19.501-26,33-4.777-.222-5.361-4.639-12-3-1.592-13.446 12.402-19.459 17-30-6.788-1.772-10.572,8.083-18,9-1.306-8.972 7.936-7.398 9-14 10.363-.306 19.753-13.006 28-6 .409,2.409-1.826,2.174-1,5-5.705,1.961-10.032,5.301-12,11 6.094-1.24 7.64-7.027 14-8l-.5,1.833 1.5,1.167z"/>
  <path d="m453.72,65.59c6.699-7.837 20.333-15.053 29-5-3.149,8.851-16.797,7.204-28,8l.5-1.833-1.5-1.167z"/>
  <path d="m302.72 65.59c2.544 1.123 4.877 2.456 7 4v7c-6.43 2.55-10.74-6.141-7-11z"/>
  <path d="m291.72,80.59c-3.19.857-3.093-1.574-5-2 1.126-3.874 1.95-8.05 4-11 8.25-.626 4.87,11.539 1,13z"/>
  <path d="m382.72 68.59c-2.718 5.282-5.707 10.292-12 12-2.26-6.274 4.91-15.169 12-12z"/>
  <path d="m312.72 71.59h3v3h-3v-3z"/>
  <path d="m346.72,71.59c1.313.353 1.573,1.761 3,2-.354,1.313-1.761,1.573-2,3-1.313-.354-1.573-1.761-3-2 .35-1.313 1.76-1.572 2-3z"/>
  <path d="m390.72,81.59h1c2.084-2.916 3.347-6.653 6-9 1.313.354 1.573,1.761 3,2 .376,6.042-1.209,10.125-4,13-1.824-1.509-5.605-1.061-7-3l1.5-1.167-.5-1.833z"/>
  <path d="m460.72,78.59c2.061-3.55 9.37-6.25 14-4-2.618,4.049-7.252,6.081-13,7l.5-1.833-1.5-1.167z"/>
  <path d="m448.93,88.947 1.786-.357c.282,1.615-.945,1.722-1,3 11.048.505 45.801-13.978 48,7-12.487,2.179-23.589,5.745-33,11 4.07,4.44 10.895.512 17,0 10.539-.884 23.515.017 34,2-2.366,8.367 4.876,7.124 8,10-1.747,4.253-8.34,3.66-12,6l-.5-1.5-.5-1.5v-1c-13.382-5.363-23.442,5.807-34,1 2.899-6.767 14.722-4.612 21-8-15.421-4.061-34.796,1.32-51,2-1.771-11.576 15.995-10.997 22-18-10.093-6.153-26.811,12.064-35,2 .888-7.779 10.297-7.036 11-15h3l1.21,1.357z"/>
  <path d="m475.22,132.76 .5,1.833c-4.791-.209-10.994.995-13-2 1.269-5.074 10.789-2.72 14-1l-1.5,1.17z"/>
  <path d="m504.72,131.59c11.039-1.086 23.924.349 20,11-5.22-1.45-26.92-.28-20-11z"/>
  <path d="m438.72,146.59c2.892.441 4.559,2.108 5,5-3.14-.19-4.81-1.86-5-5z"/>
  <path d="m452.72,157.59c3.19-.857 3.093,1.574 5,2-.43,3.4-6.52,2.33-5-2z"/>
  <path d="m309.72,165.59c1.511-1.838 6.748-2.958 9-1-1.412,2.588-3.231,4.769-8,4l.5-1.833-1.5-1.17z"/>
  <path d="m444.72,173.59h3c-.594,3.19 1.877,3.093 0,5h-3c-.7-3.08-.7-1.92 0-5z"/>
  <path d="m325.72,185.59c4.365.698 4.446-2.887 8-3 2.984.016 3.4,2.6 6,3-1.071,8.071 7.032,6.968 6,15-1.419-.086-2.832-.165-3,1-2.715-1.285-5.028-2.972-5-7-1.862-.138-3.342-.658-4-2-7.298.036-13.239,1.427-20,2-6.637,6.363-16.22,9.78-25,14-.12-16.73 21.376-21.455 32-28 3.82-.49 3.13,3.54 5,5z"/>
  <path d="m466.72,251.59c3.279-13.066-6.854-24.104-2-35 6.324,2.636 11.054,27.281 7,34-.819,1.358-.455,2.492-3,2l-.5-1.5-1.5.5z"/>
  <path d="m462.88,259.09 1.833-.5c-2.464,6.203 2.071,19.404-7,19-3.562-7.729-2.528-15.636 4-20l1.17,1.5z"/>
  <path d="m300.72,242.59c3.722-5.727 12.778-11.066 22-8-3.64,6.027-14.627,4.706-19,10l-1.3-1.3-1.7-.7z"/>
  <path d="m365.72 237.59c-1.463 4.961-11.489 8.3-15 5 1.78-4.45 10.39-6.62 15-5z"/>
  <path d="m321.72,245.59c.681-3.651 6.88-1.812 8,0-.758,2.576-3.192,3.475-7,3l.5-1.833-1.5-1.17z"/>
  <path d="m301.22,261.42 1.5,1.167c-.707,2.218-4.693,3.322-6,2 .021-3.312 1.688-4.979 5-5l-.5,1.83z"/>
  <path d="m283.72 247.59c1.003 9.33 5.137 15.53 8 23-8.54 6.93-20.03-19.03-8-23z"/>
  <path d="m237.72,263.59c3.668-5.918 13.491,1.583 16,0 1.945-1.052-2.524-4.063-1-8 3.736-1.069 2.85,2.483 6,2 13.753,22.275-16.949,44.76-4,66h6l1.167,1.5 1.833-.5v1h6l-.5,1.833 1.5,1.167c1.768,9.238-5.553,14.979-9,22-4.427-.476-4.973,1.376-8,0l.5-1.5-.5-1.5c2.572-6.428 8.769-9.231 9-18-7.742-1.075-10.056,3.277-15,5 .435,4.565-1.011,11.011 1,14l-1.5.5 .5,1.5c-.443.891-.878,1.788-2,2 1.077,5.59 7.268,6.065 7,13l-1.833-.5-1.167,1.5c-4.78-5.554-10.536-10.131-14-17 .414-5.919 6.213-6.454 5-14 3.452-.215 3.269-4.064 6-5 1.583-7.59-2.381-14.534-2-21 .386-6.559 5.465-10.443 6-18-.431-2.236-4.928-.405-7-1l-.5-1.5-1.5.5v-3h-3l.5-1.833-1.5-1.167c4.331-3.67 12.862-3.138 19-5 .154-10.622-10.763-12.766-19-12l.5-1.5-.5-1.5z"/>
  <path d="m278.22,323.76-1.5-1.167c-.385-2.615-3.207-2.794-2-7 6.217-1.934 13.786-4.552 19-2l-.5,1.833 1.5,1.167c-4.237,2.763-13.665.335-13,8l-1.5-.5 .5,1.5h-3l.5-1.83z"/>
  <path d="m299.55,311.09-1.833.5c1.197-6.45-5.177-10.53-1-14 4.059,2.274 4.568,8.099 7,12-.56,1.44-1.56,2.44-3,3l-1.17-1.5z"/>
  <path d="m282.22,327.09-.5-1.5c10.992-5.342 31.29-1.376 34-15-2.741-5.926-11.198-6.135-14-12 8.447-4.729 14.047,10.293 22,3 3.709-.042 3.583,3.75 6,5 5.694.694 8.306-1.694 14-1 1.238,2.357 5.113,5.387 2,9-6.683-4.992-13.479-.532-22-2-6.083,5.251-11.431,11.235-17,17-11.862,1.275-15.952,6.576-28,5-.646-3.979 2.646-4.021 2-8l1.5.5z"/>
  <path d="m252.22,349.09 .5,1.5h-1l.5-1.5-.5-1.5h1l-.5,1.5z"/>
  <path d="m236.22,291.76 .5,1.833c-2.826.826-2.591-1.409-5-1 .319-4.681.691-9.309 6-9l-.5,1.833 1.5,1.167c-.777.89-1.075,2.258-1,4l-1.5,1.17z"/>
  <path d="m350.72,256.59c5.488-2.463 15.063-.416 19,2-1.46,5.18-17.3,2.21-19-2z"/>
  <path d="m359.72,334.59c-3.78-6.59.562-16.331-3-24-1.794-3.862-5.131-5.152-8-8v-3c16.18.13 23.46,23.01 11,35z"/>
  <path d="m265.72,355.59c-1.112,4.222-2.529,8.138-7,9-1.417-4.535.314-8.048 4-10l1.167,1.5 1.83-.5z"/>
  <path d="m165.72,330.59c.571.217 1.17.466 1.782.746 4.715,2.164 10.11,6.172 8.218,11.254-5.43-2.13-11.32-6.08-10-12z"/>
  <path d="m408.72,340.59c-1.292-4.958 2.42-4.913 2-9h4c.163,4.497.223,8.89-3,10l-1.167-1.5-1.83.5z"/>
  <path d="m181.72,348.59c-3.19-.594-3.093,1.877-5,0-1.17-6.26 6.17-6.26 5,0z"/>
  <path d="m437.72,377.59c5.821-3.702 19.604-8.988 26-3-3.742,5.924-13.721,5.612-19,10v-2h-2c1.008-3.008-2.229-1.772-4-2l.5-1.833-1.5-1.17z"/>
  <path d="m276.72,414.59c-15.042-5.381-16.881-26.714-13-40 1.313.354 1.573,1.761 3,2 3.306,12.027 2.623,28.044 11,35l-1.357,1.214 .36,1.79z"/>
  <path d="m522.72,379.59c-1.195,8.343 6.28,18.04 2,26-4.584.584-4.662-3.338-7-5-10.38-.496-22.419,3.764-26-5 6.013-8.987 23.918-6.082 28-17 .8.53 1.62,1.04 3,1z"/>
  <path d="m58.717,381.59c7.772,2.895 12.728,8.605 16,16l-1.5,1.167 .5,1.833h-5c-2.751-6.248-6.313-11.687-11-16l1.5-1.167-.5-1.83z"/>
  <path d="m86.074,405.38-.357-1.786c10.715,6.989 23.271,17.344 23,32-6.339-2.605-8.337-10.114-12-15-3.886-5.184-8.917-8.523-12-14l1.354-1.21z"/>
  <path d="m100.72,386.59c3.651-4.558 12.232-2.429 10,3h-9l.5-1.833-1.5-1.17z"/>
  <path d="m388.72,403.59c4.58.67-.81,6.05 0,0z"/>
  <path d="m134.72,459.59c-4.036-3.297-5.875-8.792-7-15 6.65,1.351 8.602,7.398 10,14l-1.833-.5-1.17,1.5z"/>
  <path d="m136.55,460.09 1.167-1.5c2.906.019 2.364,5.651 1,7-.89-.777-2.258-1.075-4-1v-5l1.83.5z"/>
  <path d="m123.72,501.59c3.392-4.435 6.642,1.939 10,2-4.33,8.337-8.248,17.086-11,27-4.06.941-8.688,5.517-13,3 1.376-8.867 7.582-17.339 13-24 1.75-2.152 5.573-5.212 2-5l.5-1.833-1.5-1.17z"/>
  <path d="m23.717,518.59c6.276.058 5.479,7.188 12,7-6.697,2.761 1.558,14.701-4,19h-5c-2.39-6.73-5.138-18.03-3-26z"/>
  <path d="m131.72,274.59c3.257,5.052-2.401,8.598-3,13-15.199,4.468-18.532,20.801-30,29v3l-1.833-.5-1.167,1.5c-1.667-1-.708-4.625-3-5 3.955-7.045 10.855-11.145 14-19 1.477-4.478-2.928-3.071-2-7 11.45-1.55 20.371-5.629 24-15l1.5.5 1.5-.5z"/>
  <path d="m97.551,321.09 1.167-1.5c3.58,3.709 2.035,14.596 11,10l1.214,1.357 1.786-.357c-3.623,7.044-2.799,18.534-12,20-2.901-10.919-3.952-17.498-5-30l1.831.5z"/>
  <path d="m114.55,320.09-1.833.5c-.739-4.406 3.237-4.097 4-7 3.238,2.411 15.793-3.736 16,4l-1.5,1.167 .5,1.833c-2.298,1.243-12.331-1.614-16,1l-1.17-1.5z"/>
  <path d="m69.717,317.59c1.396,12.233.829,31.599 13,36l-1.5,1.167 .5,1.833h-9c-5.676-9.99-9.099-22.234-19-28l1.5-.5-1.5-.5c.353-1.313 1.761-1.573 2-3l1.5.5 1.5.5c8.22,6.782 4.813-5.851 8-9l1.167,1.5 1.833-.5z"/>
  <path d="m99.217,361.42-.5-1.833c4.065.937 9.36,4.845 8,8-4.194,2.954-6.906-2.681-9-5l1.497-1.17z"/>
  <path d="m56.884,303.09-1.167,1.5c-4.134-1.769 1.22-7.654-5-8 1.363-2.304 4.397-2.937 6-5l1.167,1.5 1.833-.5c.491,4.491-.507,7.493-1,11l-1.833-.5z"/>
  <path d="m58.717,268.59v2c-2.35-1.316-4.546-2.788-9-2l.5-1.833-1.5-1.167c-.163-1.163.221-1.779 1-2 4.703-.005 12.753,1.873 11,5h-2z"/>
  <path d="m42.884,277.09 1.833-.5c-.977,5.689-2.88,10.453-6,14l-1.5-.5-1.5.5c-3.344-3.248 2.165-12.515 6-15l1.167,1.5z"/>
  <path d="m34.717,294.59h2c.43,14.569-1.004,31.004 1,44l-1.833-.5-1.167,1.5c-7.01-15.069-2.434-33.103-2-48 .81.19.997,1.003 2,1v2z"/>
  <path d="m40.551,348.09 1.167-1.5c5.939,3.395 6.96,11.706 11,17 6.297.037 13.304-.638 17,2-3.583,5.076-19.918.728-27,5l.5-1.5-1.5-.5c-.241-7.426-5.708-9.625-9-14l1.3-1.3 .7-1.7c2.618,2.633 5.163.088 4-4l1.833.5z"/>
  <path d="m31.967,351.59-.25,2c-1.615.282-1.722-.945-3-1l.5-2.25 1.5-1.75c.807.86 2.739.594 3,2l-1.75,1z"/>
  <path d="m24.217,335.09-.5,1.5c-12.52-3.479-8.273-23.727-17-31h-3l-1.167-1.5-1.833.5c-1.877-1.907.593-1.81 0-5 5.027-1.994 5.973,1.577 11,2 2.381,7.619 7.924,12.076 8,22 2.587,3.413 5.622,6.378 6,12l-1.5-.5z"/>
  <path d="m19.551,373.09 1.167-1.5c2.131,1.869 4.836,3.164 5,7l-1.5,1.167 .5,1.833c-5.428.095-5.742-4.925-7-9l1.833.5z"/>
  <path d="m34.551,392.09 1.167-1.5c10.768,7.251 14.056,17.563 18,34 1.8,7.502 3.044,11.604 4,21 1.324,13.017 8.274,23.765 9,38-2.51,5.149-7.508,10.894-9,19-1.276,6.934 1.129,15.251-2,20-1.419-.086-2.832-.165-3,1-6.723-3.874-.701-10.698-3-17-4.868-1.272-4.68,5.82-8,3 .331-9.084 15.8-18.3 17-24 .195-.926-1.402-.813-2-1l.5-1.833-1.5-1.167c7.749-5.929-2.735-21.427-5-36-.406-2.61.44-6.646 0-9-2.35-12.575-6.672-24.21-9-33-2.427-4.573-8.02-5.979-9-12l1.833.5z"/>
  <path d="m37.884,502.09 1.833-.5c-2.858,5.143-4.273,11.727-11,13 .187-7.146 4.245-10.422 8-14l1.167,1.5z"/>
  <path d="m175.72,389.59c-2.229,3.438-2.608,8.726-5,12 2.53,9.471 10.303,13.697 9,27-5.045-1.643-8.476-7.513-11-12-2.649-4.711-4.494-11.117-7-16l1.5-1.167-.5-1.833h1c4.562-3.051 5.283-7.416 3-13-3.753-9.178-2.112-24.547-3-34 2.483-2.365 5.886-.01 9,0-3.312,11.758-3.294,30.918 4,38h-1v1z"/>
  <path d="m138.88,385.09-1.167,1.5c-6.018-9.315-3.257-27.41-14-32 2.36-3.64 10.297-1.703 8-10-.385-4.949-7.295-3.371-6-10 6.134.532 8.883,4.45 13,7l-.5,1.5 1.5.5c-11.227,11.344 4.162,23.954 1,42l-1.83-.5z"/>
  <path d="m181.22,390.09-1.5-.5c.42-2.226 5.306-.783 6,0 .36,3.166-5.489,4.477-6,1l1.5-.5z"/>
  <path d="m374.72,1.59c22.672,8.318 46.697,5.676 68,8l-1.5,1.167 .5,1.833c-9.808,2.523-22.927,3.59-33,2-2.523-.398-11.485-.679-17-2-4.042-.969-13.197-3.936-18-8l1.5-1.167-.5-1.833z"/>
  <path d="m443.22,11.424-.5-1.833c12.81-2.193 20.891,4.959 29,10 5.867,3.647 13.482,11.211 19,17 5.736,6.019 11.558,16.004 16,24 1.867,3.361 2.011,9.191 7,11 .575,7.722 7.043,14.261 11,21 6.631,11.292 11.199,22.626 21,31-.817,5.909 5.735,8.509 6,14 .344,7.127-5.537,12.865-12,16l.5-1.833-1.5-1.167c.059-5.275 5.751-4.916 6-10-18.064-32.936-39.116-62.883-56-97-5.576-3.09-9.264-8.069-12-14-11.746-5.587-19.956-14.711-35-17l1.5-1.166z"/>
  <path d="m537.88,154.09 1.833-.5c-5.504,10.83-15.156,17.51-22,27-10.502.541-58.001-7.203-53,14 9.988,2.012 12.211,11.789 19,17 .641,13.605 6.341,23.24 8,34 1.295,8.399-1.985,8.983-6,15-3.734,5.597-5.445,12.165-8,19-1.354,3.621-1.911,7.436-3,10-.527,1.242-2.661,1.552-3,3-1.095,4.673.176,10.812 0,17-.155,5.474-2.49,11.25 0,16 3.576,6.162 9.217,2.797 14,6 5.235,3.506 3.859,8.086 6,14 2.467,6.816 7.057,12.988 8,19 8.484.734 16.256.265 26,0-1.424,14.127-16.087,7-25,8-1.894,6.227 3.09,5.577 4,9-3.949,1.718-8.455,2.878-14,3l.5-1.833-1.5-1.167c-.184-.851.39-.943 1-1 1.9-5.039-1.7-6.586-3-9-1.12-2.081-2.107-6.104-5-7 .858-6.858-2.639-9.361-3-15-1.011-4.678 4.011-3.322 3-8-9.154-2.122-18.133-8.705-25,0-.726,3.059 1.726,2.941 1,6-9.451,5.549-17.829,12.171-28,17l.5-1.833-1.5-1.167c1.498-3.836 5.716-4.951 8-8-.334-2.333-1.025-4.309-3-5 6.595-10.405 21.147-12.853 30-21-4.696-6.637-1.651-21.016-4-30-1.957-2.043-5.018-2.982-9-3 1.85,11.963-2.111,21.403-1,33-4.098,2.235-7.648,5.019-11,8l-.7-1.7-1.3-1.3c7.342-12.175 14.723-38.027 1-49-5.311-14.075-17.023-31.367-12-55 .2-.942 1.064-1.749 2-2l1.167,1.5 1.833-.5c-1.673,12.742 3.067,23.973 6,33 .745,2.294.332,5.253 1,7 1.199,3.139 4.264,6.073 5,9 .375,1.491-.577,3.586 0,5 .201.492 1.712-.08 2,1 .715,2.677 2.229,4.305 4,7h10c-1.263-3.256 4.03-6.435 5-8 .704-1.138.022-3.351 1-5 .409-.69 2.752-1.323 3-2 .521-1.423-.653-3.642 0-5 1.845-3.834 6.104-7.191 8-11 6.675-13.404-1.119-26.2-3-44-7.495-2.25-10.477-.604-20-3-2.196,4.804-6.729,7.272-8,13 .045,5.288 5.802,4.865 8,8-.406,10.297 11.146,21.566-2,25l-.5-1.5-.5-1.5c-1.069-3.736 2.483-2.85 2-6-3.466-5.046-3.115-15.021-12-17-2.963-6.093-.388-19.92 6-25 8.216.549 13.567-1.766 22-1-1.084-5.25-7.51-5.156-14-5l.5-1.833-1.5-1.167c6.357-13.642 12.213-27.788 16-44l1.167,1.5 1.833-.5c.618,7.285-1.743,11.59-1,19 18.237.531 26.688-3.107 46-2 6.461-6.206 11.956-13.377 19-19l1.17,1.5z"/>
  <path d="m429.22,363.42 1.5,1.167c.123,2.206-6.996,5.287-2,6l-.5,1.833 1.5,1.167c-3.551,3.115-7.063,6.27-12,8l.5-1.5-1.5-.5c1.382-4.049-2.171-3.163-2-6 2.743-6.257 8.587-9.413 15-12l-.5,1.83z"/>
  <path d="m391.42,389.29 1.3,1.3c-7.907,13.093-18.059,23.941-29,34-2.046,3.489 3.602,7.171-2,9l-1.167-1.5-1.833.5c-1.581-4.547-4.008.511-10,4-3.22,1.874-7.732,2.572-10,4-1.912,1.204-2.242,3.219-4,4-3.582,1.592-8.05,2.316-10,6-2.768.898-9.388-2.055-9,2 1.538,1.795 5.861.805 6,4l-1.5,1.167 .5,1.833c-7.761,1.478-10.129-3.329-16-1-4.324,4.562-3.616,10.168-3,18 .613,1.387 3.85.15 4,2l-1.5,1.167 .5,1.833c-5.131.008-6.561-1.464-11,0l.5-1.833-1.5-1.167c1.784-1.34 3.094-5.788 1-8-4.567-2.772-8.191,2.807-14,2l.5-1.833-1.5-1.167c3.648-4.353 13.257-2.743 18-6-1.043-3.512-6.079-3.055-9-3-16.401.31-32.008,8.855-50,9l.5-1.833-1.5-1.167c14.189-5.171 35.41-6.277 47-11 .726-3.059-1.726-2.941-1-6-11.344-2.655-13.066-14.935-18-24l1.7-.7 1.3-1.3c6.324,3.342 12.086,7.247 17,12-2.317,3.01-4.259.59-8,0-.022,2.355 1.723,2.944 1,6 12.811,1.246 20.26,12.996 33,11 .204-3.204-4.369-1.631-4-5 37.123-10.877 62.466-33.534 84-60l.7,1.7z"/>
  <path d="m337.88,460.09 1.833-.5c-.914,2.399 2.314,5.97 6,6 3.632.03 5.858-5.616 9-8 1.848-1.402 6.241-2.317 9-4 5.271-3.214 17.975-12.49 22-14 3.592.075 8.144-.81 9,2 7.521-2.479 15.923-4.077 20-10 7.15-.013 14.508-11.941 18-1-15.956,8.506-30.774,21.914-54,20-7.497,5.836-18.585,8.081-21,19 1.927,5.073 9.072,4.928 9,12-12.551,2.467-14.149-14.454-29-13 .392,5.608 6.823,5.177 8,10l-1.7.7-1.3,1.3c-3.821-1.846-7.174-4.16-9-8-5.328,1.006-15.816-3.149-14,5 1.232,3.038 3.438-1.084 6,0 1.254,5.293 6.376,11.332 4,17-5.038-.962-5.479-6.521-7-11-6.354-1.859-13.129,2.021-18-2l1.5-1.167-.5-1.833c3.643.309 6.508-.159 9-1-.091-13.757 14.788-12.546 22-19l1.17,1.5z"/>
  <path d="m289.97,482.59 1.75,1c-.028.973-1.224.776-2,1l-.25-2-1.75-1c.027-.973 1.224-.776 2-1l.25,2z"/>
  <path d="m285.22,485.42 1.5,1.167c-13.1,13.42-49.781,30.338-67,10l1.5-1.167-.5-1.833c4.321.346 6.665,2.668 9,5 5.933-1.243 11.197,1.624 17,1 14.093-1.516 27.027-11.424 39-16l-.5,1.83z"/>
  <path d="m199.22,472.76 .5,1.833c-16.284,1.057-29.622,6.053-43-2-2.409-.409-2.174,1.826-5,1l.5-1.833-1.5-1.167c10.99-11.01 20.797-23.203 31-35l1.167,1.5 1.833-.5c-1.153,8.514-9.122,10.212-11,18 5.043,1.168 12.608-7.926 19-1l-1.5,1.167 .5,1.833h-9c-1.453,2.547-5.316,2.685-7,5-4.641,2.692-12.607,2.06-14,8 5.606,3.061 22.443,3.295 28,0 .918-5.117-4.376-4.018-2-8 7.346.32 8.875,6.458 13,10l-1.5,1.17z"/>
  <path d="m138.42,483.29 1.3,1.3c-.237,5.066-4.561,10.354-8,9-1.398-3.777 3.12-9.27 6-12l.7,1.7z"/>
  <path d="m184.55,432.09-1.833.5c1.608-16.039 10.985-34.131 13-50-3.684-8.315-10.461-13.539-11-25 8.902,1.182 10.793,17.812 17,25-.409,9.258-2.353,16.98-7,22-2.817,9.85-3.542,21.792-9,29l-1.17-1.5z"/>
  <path d="m200.22,458.42-.5-1.833c4.125.542 6.424,2.909 9,5l-1.5,1.167 .5,1.833c-5.386.719-6.811-2.522-9-5l1.5-1.17z"/>
  <path d="m210.22,464.42-.5-1.833c3.835.499 6.295,2.371 8,5 4.973.15 12.761-2.647 19-1l-.5,1.833 1.5,1.167c-8.309,1.743-26.361,7.509-29-4l1.5-1.17z"/>
  <path d="m250.88,403.09-1.167,1.5c-5.96-3.788-8.701-12.488-14-19-.522-.642-2.642-.486-3-1-1.086-1.559-1.409-4.438-3-7-9.646-15.531-22.836-42.06-9-64l1.167,1.5 1.833-.5c-9.859,41.815 15.228,64.318 29,89l-1.83-.5z"/>
  <path d="m226.55,301.09-1.833.5c1.392-9.61-5.594-15.422-8-23-2.649-8.345-1.394-17.792-8-23-1.019-6.775-.004-11.857-1-19 2.631-2.846 3.791-1.96 7-3-1.755-18.374 1.411-37.915 11-48l.7,1.7 1.3,1.3c-5.421,14.37-7.758,28.237-7,47 11.328,2.174 30.231,1.539 29,13-9.92-1.08-18.123-3.877-29-4-3.238,14.821 1.649,26.883 6,39 .578,1.609.086,3.833 1,6 1.47,3.483 6.607,8.645 0,13l-1.17-1.5z"/>
  <path d="m228.55,182.09-1.833.5c4.767-13.567 11.034-25.633 14-41 3.16.493.371-4.962 4-4-2.085-6.761 3.359-10.51 4-16 1.312-11.233-9.348-20.023-10-33-1.282-1.718-4.761-1.239-5-4l1.5-1.167-.5-1.833h2c6.5-6.463-3.201-12.346-4-18 1.479-.521 2.521-1.479 4-2 14.075,4.258 7.582,29.085 13,42 3.078.745 1.922-2.745 5-2l1.214,1.357 1.786-.357c-4.761,3.545-2.739,10.298-4,19-1.305,9.007-6.1,18.36-9,27-2.305,6.865-5.27,14.42-5,21 27.665-12.632 66.103-23.471 107-18 14.961,2.001 37.512,8.084 50,14 8.764,4.151 16.577,12.094 27,16-.857,3.19 1.574,3.093 2,5 8.396,3.981 11.963,18.741 26,11l-.5,1.833 1.5,1.167c-4.348,4.652-13.258,4.742-19,8v-3c-7.472.529-3.885,12.116-10,14-.34,3.101 2.315,4.777 0,7-3.74,1.328-6.913-2.981-9,0l-1.3,1.3-.7,1.7c-1.494-1.506-5.701-.299-5-4-.493-3.16 4.962-.371 4-4-2.344-1.99-6.551-2.115-6-7 .738.708 4.895,2.492 4-1-1.389-3.611-6.521-3.479-9-6-1.447-3.781 2.748-1.919 2-5-1.964-1.703-4.998-2.335-6-5 1.511-5.877-5.738-8.216-4-11 3.365.968 7.238,1.428 8,5 5.321-1.038-2.976-2.941-1-7h2v-2c5.91,3.423 8.308,10.359 15,13 .776-12.443-12.138-11.195-16-19h-3l.5-1.5-1.5-.5c-17.197-10.802-39.443-16.556-65-19-1.927.407-.79,3.877-4,3-11.491-.491-21.726.275-29,4l-1.167-1.5-1.833.5v-3c-24.999,5.335-49.927,10.74-66,25l-1.17-1.5zm193.17,19.5h3c.182-2.182-.818-3.182-3-3v3z"/>
  <path d="m233.22,82.757 .5,1.833c-10.628-1.509-14.37-28.911-8-40 3.966-6.905 13.419-9.573 20-11l-.5,1.833 1.5,1.167c-3.632,5.035-10.881,6.453-16,10-1.791,11.898-2.053,27.94 4,35l-1.5,1.167z"/>
  <path d="m287.22,10.757-1.5-1.167c1.439-2.894 5.96-2.707 8-5 16.561,3.842 33.543,1.749 48-1l-.5,1.833 1.5,1.167c-2.227,7.127-16.849,1.854-22,4-.982.409-.754,1.92-2,2-9.574.616-19.434-1.2-32,0l.5-1.833z"/>
  <path d="m269.22,90.757-1.5-1.167c1.543-4.351 6.403-3.971 7-8 .357-2.41-1.054-7.422-3-9-1.409-1.143-6.501,2.412-6-2l1.5-1.167-.5-1.833c4.16-.173.293-8.373 5-8 1.811,4.856 5.512,7.821 5,15 2.829.171 6.86-.86 7,2 1.96,6.492-3.55,7.739-6,10-2.596,2.396-5.361,5.424-9,6l.5-1.833z"/>
  <path d="m258.88,57.09-1.167,1.5c-3.465-1.626-7.476-15.693 0-16 4.034,1.966 2.798,9.202 3,15l-1.83-.5z"/>
  <path d="m471.55,153.09-1.833.5c1.443-3.68.158-7.867 1-10 13.715-4.411 26.544-1.379 40,1 8.205,7.781.93,18.253-10,18l.5-1.833-1.5-1.167c.764-2.903 4.739-2.594 4-7-11.451-.384-21.08-2.04-31,2l-1.17-1.5z"/>
  <path d="m499.22,161.42 1.5,1.167c-3.793,3.061-15.315,5.524-18,1 4.195-2.804 10.627-3.373 17-4l-.5,1.83z"/>
  <path d="m416.08,229.38-.357-1.786c2.892.441 4.559,2.108 5,5-2.203.552-5.517,1.468-6-2l1.36-1.21z"/>
  <path d="m277.22,471.42 1.5,1.167c-1.546,1.454-.88,5.119-1,8-6.979,5.028-16.247,13.078-29,9l1.5-1.167-.5-1.833c6.45.784 9.146-2.188 14-3-.77-3.896-8.731-.602-8-6 4.82-5.18 12.643-7.356 22-8l-.5,1.83z"/>
  <g fill="none" stroke="#000" stroke-linecap="round">
   <path d="m356.55,68.09-.666,2" stroke-width="3.1623"/>
   <path d="m371.88 62.09c1.042-5.523 3.732-10.439 4.666-16" stroke-width="3.767"/>
   <path d="m329.88,69.09 .666,2" stroke-width="3.1623"/>
   <path d="m445.22,61.424c1.873-.937 3.33-2.561 5-2.833" stroke-width="2.6874"/>
   <path d="m429.72,93.59 .443-.048c7.164-9.911 15.265-19.511 25.057-26.785" stroke-width="2.8682"/>
   <path d="m383.22,82.09c2.241,1.896 5.425.367 8,1.333" stroke-width="3.0768"/>
   <path d="m475.22,132.76c12.266.125 24.826-1.79 36-6.667" stroke-width="3.4818"/>
   <path d="m448.93 88.947c3.317-4.394 8.583-6.701 13.286-9.19" stroke-width="3.7483"/>
   <path d="m448.22 139.09c2.512 4.195 6.825 6.324 10 10" stroke-width="2.6024"/>
   <path d="m279.72 188.59c8.666-9.589 18.836-17.997 31.5-21.833" stroke-width="3.3802"/>
   <path d="m275.55 204.42c9.291-13.072 20.748-25.388 36.667-29.333" stroke-width="2.9954"/>
   <path d="m272.88,197.76c.618-.349.807-1.506 1.333-2.667" stroke-width="2.4833"/>
   <path d="m462.88 259.09c1.806-2.631 4.153-4.927 5.333-8" stroke-width="2.892"/>
   <path d="m296.22 253.09c2.156-3.212 2.896-7.312 6.2-9.8" stroke-width="3.6515"/>
   <path d="m301.22 261.42c9.257-1.498 12.445-13.561 22-14.667" stroke-width="3.72"/>
   <path d="m261.88,325.09c.183-.667.261-1.333.333-2" stroke-width="3"/>
   <path d="m269.22,327.42c3.424-.024 6.177-2.013 9-3.666" stroke-width="2.7568"/>
   <path d="m293.22,315.42c2.871.079 5.301-1.639 6.333-4.333" stroke-width="2.9297"/>
   <path d="m282.22,327.09c-.643-1-1.22-2-2-3" stroke-width="1.291"/>
   <path d="m252.22,367.09c-.587-.667-.965-1.333-1.333-2" stroke-width="3"/>
   <path d="m243.22 289.09c-1.103 2.616-4.46 3.45-7 2.667" stroke-width="2.8148"/>
   <path d="m230.22,273.09c.15-4.199 3.354-8.575 8-8" stroke-width="2.5022"/>
   <path d="m239.22,284.76-2,.666" stroke-width="3.1623"/>
   <path d="m247.22,349.09c1.667.585 3.333.513 5,0" stroke-width="2.2638"/>
   <path d="m252.22 349.09h2" stroke-width="3.0551"/>
   <path d="m314.22 267.09c6.131-1.437 12.07-2.348 16-8" stroke-width="3.873"/>
   <path d="m263.88 356.09c18.384-18.669 48.656-18.188 67-36.333" stroke-width="3.2998"/>
   <path d="m381.22 373.09c13.891-6.095 27.76-16.834 29.333-33" stroke-width="3.5532"/>
   <path d="m352.22 453.09c27.486-28.079 57.331-53.631 92.5-70.5" stroke-width="3.0518"/>
   <path d="m424.22 385.09c4.965-2.208 9.867-4.369 15-6.333" stroke-width="3.2544"/>
   <path d="m276.36 412.8c26.616 19.688 52.587-9.443 69.857-27.714" stroke-width="3.7641"/>
   <path d="m73.217 398.76c4.441 1.951 8.028 5.651 12.857 6.619" stroke-width="2.8702"/>
   <path d="m57.217,382.09c.667.587 1.333.965 2,1.333" stroke-width="3.0414"/>
   <path d="m93.217,390.09c2.622-1.735 6.179-.878 9-2.333" stroke-width="2.818"/>
   <path d="m390.22 431.09c13.163-7.179 26.886-14.303 41.5-18.5" stroke-width="3.6075"/>
   <path d="m135.88,458.09 .667,2" stroke-width="3.1623"/>
   <path d="m125.22 502.76c-16.906 7.438-34.499 13.817-53 16.333" stroke-width="3.1063"/>
   <path d="m96.884,319.09 .667,2" stroke-width="3.1623"/>
   <path d="m110.93,330.95c.841-3.73 2.291-7.253 3.619-10.857" stroke-width="3.8822"/>
   <path d="m86.217,284.09c10.155-11.014 25.374-14.918 39.876-19.624 1.531.901 3.007,2.188 3.812,3.804 .561,2.221.206,4.553.312,6.82" stroke-width="2.8561"/>
   <path d="m81.217,354.76c6.701-.194 12.544,3.041 18,6.666" stroke-width="2.9653"/>
   <path d="m55.217,328.09c-1.817.186-3.848-.48-5.5.5" stroke-width="1.2247"/>
   <path d="m57.217,325.09c-.33-7.242.859-14.648-.333-22" stroke-width="3.0926"/>
   <path d="m57.884,293.09c.648-8.229 4.057-16.698.833-24.5" stroke-width="2.9032"/>
   <path d="m35.551 376.42c1.586-3.424 5.309-4.636 7.667-7.333" stroke-width="2.586"/>
   <path d="m34.017,353.29c-.502-.454-1.249-1.093-2.05-1.7" stroke-width="3.6056"/>
   <path d="m21.884,352.76c2.43-.555 4.74-1.683 7.119-2.524" stroke-width="2.582"/>
   <path d="m29.003,350.23c-.484-5.438-3.239-9.963-4.786-15.143" stroke-width="2.892"/>
   <path d="m24.217 379.76c4.302 3.27 6.591 8.453 10.333 12.333" stroke-width="2.9469"/>
   <path d="m37.884 502.09c4.982-7.838 11.113-15.586 19.333-19.333" stroke-width="3.9042"/>
   <path d="m19.551 373.09c-11.995-20.542-23.367-45.133-17-69" stroke-width="3.2427"/>
   <path d="m29.003,350.23 .214.107" stroke-width="4.4721"/>
   <path d="m40.551 348.09c-1.654-3.285-2.654-6.863-4.667-10" stroke-width="3.2106"/>
   <path d="m34.717,294.59c1.648-.917 2.389-2.89 2.5-4.5" stroke-width="2.7775"/>
   <path d="m42.884 277.09c1.853-3.723 3.597-8.121 7.333-10.333" stroke-width="2.9475"/>
   <path d="m67.884 318.09c-1.637-10.602 6.447-20.164 12.333-27" stroke-width="3.228"/>
   <path d="m163.22 399.42c-7.17-6.449-18.017-7.269-24.333-14.333" stroke-width="2.867"/>
   <path d="m138.22,343.09c6.271-2.068 12.596.578 16.667,5.333" stroke-width="2.3755"/>
   <path d="m175.72,388.59c1.796.535 3.573,1.407 5.5,1.5" stroke-width="1.1464"/>
   <path d="m441.22,10.757c.667.222 1.333.445 2,.667" stroke-width="3.1623"/>
   <path d="m491.22 382.76c-26.219 4.988-51.311 15.545-75.667 25.666" stroke-width="2.7729"/>
   <path d="m431.22,362.76-2,.666" stroke-width="3.1623"/>
   <path d="m428.22 372.42c12.928-5.385 23.733-14.749 37.5-17.833" stroke-width="3.4249"/>
   <path d="m396.22 399.09c5.817-7.982 14.307-13.174 22-19" stroke-width="3.0283"/>
   <path d="m345.36,480.8c-.432-.468-.912-.979-1.343-1.514" stroke-width="3.6056"/>
   <path d="m138.42 483.29c4.038-4.374 8.569-8.594 13.8-11.533" stroke-width="3.4766"/>
   <path d="m182.88 437.09c1.093-1.667 1.221-3.333 1.667-5" stroke-width="3.0706"/>
   <path d="m207.22,462.76c1,.571 2,1.187 3,1.666" stroke-width="3.0551"/>
   <path d="m221.88 315.09c1.097-4.884 3.482-9.162 4.667-14" stroke-width="3.5187"/>
   <path d="m226.42 187.29c1.585-1.319 1.728-3.339 2.133-5.2" stroke-width="3.1396"/>
   <path d="m245.22 35.424c15.567-4.954 28.116-16.623 42-24.667" stroke-width="3.8371"/>
   <path d="m341.22 5.424c10.849-5.15 22.88-8.122 34-2" stroke-width="4.1757"/>
   <path d="m233.22,82.757c.667.222 1.333.445 2,.667" stroke-width="3.1623"/>
   <path d="m255.93 102.95c3.374-4.939 8.222-9.06 13.286-12.19" stroke-width="3.8914"/>
   <path d="m267.22 69.424c-3.276-3.496-6.842-7.507-8.333-12.333" stroke-width="3.1972"/>
   <path d="m451.22,199.42c1.333-.248 2.667-.344 4-.667" stroke-width="3.0984"/>
   <path d="m501.22,160.76-2,.667" stroke-width="3.1623"/>
   <path d="m471.55,153.09-.666,2" stroke-width="3.1623"/>
   <path d="m537.88,154.09c.532-1.039 1.491-1.696 2.333-2.333" stroke-width="3.0551"/>
   <path d="m401.72,184.59c-1.941-1.82-4.579-3.141-5.911-5.451 .341-.798 1.25-2.447 2.411-4.049" stroke-width="3.1833"/>
   <path d="m279.22 179.42c5.86-6.265 12.593-11.844 18.333-18.333" stroke-width="3.2528"/>
   <path d="m250.88 403.09c5.206 7.306 9.01 15.404 15.534 21.8" stroke-width="3.7372"/>
   <path d="m391.42 389.29c14.147-19.916 29.104-39.59 47.6-55.4" stroke-width="3.1523"/>
   <path d="m429.88 228.09c1.036-4.526 6.074-7.816 3.833-13" stroke-width="3.1145"/>
   <path d="m441.22,241.59c5.718,2.381 2.149,8.824 2.806,13.373 .241.801 1.22,1.874 2.153,2.734 1.279.078 3.014-.73 4.19-1.204l.851-.402" stroke-width="3.559"/>
   <path d="m416.08,229.38c-1.289-.561-1.85-1.02-2.657-1.486" stroke-width="3.4641"/>
   <path d="m322.22,459.09c-.667-.587-1.333-.965-2-1.333" stroke-width="3.0551"/>
   <path d="m304.22,479.76 2,.666" stroke-width="3.1623"/>
   <path d="m337.88 460.09c6.425-10.259 15.494-18.594 22.666-28" stroke-width="3.4012"/>
   <path d="m199.22 472.76c8.319 6.236 14.062 15.782 22 22.666" stroke-width="3.6885"/>
   <path d="m285.22 485.42c1.729-1.168 3.433-2.43 4.25-2.833" stroke-width="3.1358"/>
   <path d="m289.97,482.59c1.202-.928 2.603-1.984 4.25-2.833" stroke-width="3.2863"/>
   <path d="m248.22,487.76 2,.666" stroke-width="3.1623"/>
   <path d="m277.22,471.42c1-.214 2-.406 3-.666" stroke-width="3.1091"/>
   <path d="m238.22,467.76-2,.666" stroke-width="3.1623"/>
   <path d="m200.22 458.42c-2.782-1.791-5.66-3.295-9-3.666" stroke-width="3.5473"/>
  </g>
  <path d="m131.49,315.03s15.288.213 19.535,3.186 17.2,14.014 17.2,14.014l-1.062,4.46s-13.59-9.769-18.262-12.316-18.049-3.609-18.049-3.609l.64-5.73z"/>
 </g>
</svg>
